# xmcd
#
# Track frame offsets:
# 150
# 1244
# 20279
# 41940
# 59318
# 71989
# 91217
# 108071
# 123860
# 151075
# 169055
# 183169
# 202401
# 223472
# 240445
# 258522
# 279190
# 317809
#
# Disc length: 4424 seconds
#
#
# Revision: 0
# Processed by: cddbd v1.5PL3 Copyright (c) Steve Scherf et al.
# Submitted via: FreeRIP 2.12 
#
DISCID=f9114612
DTITLE=Blues Works - One Step: Live at IMT!
DYEAR=2002
DGENRE=Blues
TTITLE0=Intro
TTITLE1=Fishin' Blues
TTITLE2=One Step
TTITLE3=Ridin' on Sunday
TTITLE4=Pressure
TTITLE5=It Must Have Been the Devil
TTITLE6=Rainin' In My Heart
TTITLE7=Howard's Rag
TTITLE8=Floating Bridge
TTITLE9=Doin' the Run Around
TTITLE10=It Hurts Me Too
TTITLE11=Oh, Chuck it (In a Bucket)
TTITLE12=Song For My Father
TTITLE13=You Do Me Any Old Way
TTITLE14=The Door
TTITLE15=You Do It!
TTITLE16=A Virus Called the Blues (Black Night Medley)
TTITLE17=Packin' Up, Getting' Ready
EXTD=
EXTT0=
EXTT1=
EXTT2=
EXTT3=
EXTT4=
EXTT5=
EXTT6=
EXTT7=
EXTT8=
EXTT9=
EXTT10=
EXTT11=
EXTT12=
EXTT13=
EXTT14=
EXTT15=
EXTT16=
EXTT17=
PLAYORDER=
